<svg version="1.0" xmlns="http://www.w3.org/2000/svg" width="813.000000pt" height="859.000000pt" viewBox="0 0 813.000000 859.000000" preserveAspectRatio="xMidYMid meet" class='apiarist' >
		<style>
		.apiarist> g{
	fill:white;
	
		
		:hover > g{

fill:#E5BC6C;
		}
		</style>
<g transform="translate(0.000000,859.000000) scale(0.100000,-0.100000)" fill="none"   >
<path d="M3900 8294 c-288 -35 -526 -126 -760 -292 -162 -114 -412 -379 -530
-560 -13 -20 -30 -25 -120 -37 -633 -84 -1079 -183 -1430 -320 -375 -146 -608
-309 -700 -490 -42 -83 -52 -195 -26 -302 9 -38 27 -147 42 -243 82 -559 204
-1046 434 -1725 310 -914 605 -1448 1078 -1946 l92 -96 -63 -18 c-573 -156
-884 -311 -1137 -565 -204 -204 -314 -391 -420 -710 -59 -178 -122 -463 -145
-651 l-7 -55 107 -13 c58 -7 109 -10 112 -7 3 3 16 68 29 144 103 624 287 998
606 1240 225 170 465 273 933 402 l184 51 113 -91 c447 -359 1029 -651 1626
-815 l62 -18 0 -453 0 -454 115 0 115 0 0 443 0 443 53 14 c87 22 354 114 497
170 178 71 522 245 687 348 144 90 327 221 442 316 131 109 103 101 233 65
365 -100 546 -163 723 -252 316 -158 509 -346 655 -642 106 -215 170 -429 225
-755 15 -85 28 -156 30 -158 2 -2 51 2 109 8 126 15 118 -6 81 215 -134 792
-421 1243 -969 1524 -170 87 -486 200 -730 262 l-45 11 103 114 c334 365 577
752 796 1264 183 431 436 1212 543 1685 85 371 185 984 161 992 -5 2 -7 24 -5
49 17 216 -151 426 -464 579 -418 205 -1055 367 -1744 444 l-155 17 -65 91
c-296 410 -667 669 -1083 753 -96 20 -313 33 -388 24z m306 -239 c447 -76 844
-400 1143 -931 77 -139 154 -316 140 -325 -34 -21 -391 -60 -729 -81 -270 -16
-1223 -16 -1490 0 -379 23 -702 60 -724 82 -12 12 60 180 137 320 288 519 695
855 1133 934 106 19 281 19 390 1z m1619 -906 c789 -114 1467 -346 1669 -569
166 -184 65 -352 -327 -540 -313 -150 -645 -244 -1182 -335 -1269 -216 -2869
-200 -4080 40 -443 88 -896 239 -1117 371 -130 79 -228 184 -228 246 0 14 -5
28 -11 30 -22 7 2 85 42 142 76 107 272 228 540 334 208 83 424 144 729 205
146 30 549 97 580 97 5 0 -13 -46 -39 -102 -54 -116 -141 -339 -141 -363 0 -8
7 -15 15 -15 8 0 22 -11 31 -25 60 -91 388 -146 1064 -176 298 -13 1283 -7
1520 10 518 37 733 77 814 150 22 21 49 41 58 44 16 6 15 14 -13 93 -34 96
-108 273 -145 347 -22 42 -23 47 -7 47 10 0 112 -14 228 -31z m1709 -1186 c-2
-10 -17 -94 -34 -188 -75 -413 -173 -783 -340 -1285 -165 -500 -260 -740 -407
-1035 -175 -352 -359 -620 -625 -912 -61 -67 -129 -136 -151 -154 l-41 -33
-120 41 c-217 74 -289 109 -355 171 -48 46 -65 72 -92 137 -66 165 -91 278
-109 499 -18 227 -17 231 38 295 425 492 632 1187 566 1897 l-6 61 56 7 c205
24 679 127 921 201 215 66 517 198 645 283 53 36 59 38 54 15z m-6771 -94
c297 -153 805 -302 1332 -389 105 -18 191 -33 192 -34 2 -1 -2 -70 -7 -153
-40 -683 170 -1331 586 -1809 l67 -77 -7 -136 c-7 -149 -28 -306 -52 -391 -33
-120 -107 -289 -138 -318 -39 -37 -181 -101 -357 -160 l-136 -46 -64 57 c-140
123 -367 390 -508 597 -264 388 -440 774 -682 1500 -181 543 -289 962 -364
1403 l-6 39 43 -27 c24 -14 69 -39 101 -56z m1952 -473 c426 -45 844 -66 1340
-66 521 0 942 21 1394 71 101 11 186 17 190 14 3 -4 6 -120 6 -258 0 -272 -11
-378 -62 -592 -148 -628 -545 -1139 -1037 -1335 -148 -59 -256 -82 -423 -87
-167 -6 -280 8 -428 54 -301 94 -595 323 -804 628 -198 289 -316 608 -373
1010 -14 96 -18 537 -5 568 5 14 14 17 34 13 16 -3 91 -12 168 -20z m2324
-2276 c20 -200 54 -345 117 -492 26 -60 32 -83 22 -89 -24 -15 -141 -40 -330
-69 -291 -46 -404 -82 -531 -174 -60 -42 -145 -126 -197 -193 l-25 -33 -55 67
c-105 128 -246 219 -413 267 -48 14 -167 37 -265 51 -177 26 -336 59 -360 73
-9 6 -2 32 28 108 65 158 86 253 118 521 l7 62 75 -50 c522 -345 1182 -342
1705 9 49 34 90 60 91 59 1 -1 7 -54 13 -117z m-2029 -831 c35 -10 155 -32
266 -49 111 -17 228 -37 260 -46 186 -48 335 -170 416 -340 l28 -61 -2 -190
-3 -191 -190 63 c-339 111 -647 250 -930 421 -135 82 -397 265 -402 281 -2 5
34 21 79 36 46 16 135 52 198 81 l115 53 50 -20 c28 -11 79 -28 115 -38z
m2402 25 c59 -30 199 -87 312 -128 51 -18 -423 -335 -741 -495 -166 -83 -373
-168 -577 -237 l-191 -64 -3 195 c-2 182 -1 199 19 248 31 73 102 178 149 221
114 103 215 144 442 181 286 47 333 57 413 85 44 15 86 28 93 29 7 0 45 -15
84 -35z"></path>
</g>
</svg>